<?xml version="1.0" encoding="UTF-8" standalone="no"?>
<!DOCTYPE svg PUBLIC "-//W3C//DTD SVG 1.1//EN"
 "http://www.w3.org/Graphics/SVG/1.1/DTD/svg11.dtd">
<!-- Generated by graphviz version 2.40.1 (20161225.0304)
 -->
<!-- Title: dependencies Pages: 1 -->
<svg width="8066pt" height="290pt"
 viewBox="0.00 0.00 8066.00 290.00" xmlns="http://www.w3.org/2000/svg" xmlns:xlink="http://www.w3.org/1999/xlink">
<g id="graph0" class="graph" transform="scale(1 1) rotate(0) translate(4 286)">
<title>dependencies</title>
<polygon fill="#ffffff" stroke="transparent" points="-4,4 -4,-286 8062,-286 8062,4 -4,4"/>
<text text-anchor="start" x="4008.0091" y="-42.4" font-family="sans-serif" font-weight="bold" font-size="14.00" fill="#000000">Legend</text>
<polygon fill="#ffffb3" stroke="transparent" points="3795,-10 3795,-30 3815,-30 3815,-10 3795,-10"/>
<text text-anchor="start" x="3818.629" y="-15.4" font-family="sans-serif" font-size="14.00" fill="#000000"> &#160;Declarations</text>
<polygon fill="#8dd3c7" stroke="transparent" points="3908,-10 3908,-30 3928,-30 3928,-10 3908,-10"/>
<text text-anchor="start" x="3931.7251" y="-15.4" font-family="sans-serif" font-size="14.00" fill="#000000"> &#160;Module</text>
<polygon fill="#80b1d3" stroke="transparent" points="3994,-10 3994,-30 4014,-30 4014,-10 3994,-10"/>
<text text-anchor="start" x="4017.7812" y="-15.4" font-family="sans-serif" font-size="14.00" fill="#000000"> &#160;Bootstrap</text>
<polygon fill="#fdb462" stroke="transparent" points="4091,-10 4091,-30 4111,-30 4111,-10 4091,-10"/>
<text text-anchor="start" x="4114.6732" y="-15.4" font-family="sans-serif" font-size="14.00" fill="#000000"> &#160;Providers</text>
<polygon fill="#fb8072" stroke="transparent" points="4187,-10 4187,-30 4207,-30 4207,-10 4187,-10"/>
<text text-anchor="start" x="4210.7258" y="-15.4" font-family="sans-serif" font-size="14.00" fill="#000000"> &#160;Exports</text>
<g id="clust1" class="cluster">
<title>cluster_AppModule</title>
<polygon fill="none" stroke="#000000" stroke-dasharray="1,5" points="8,-70 8,-274 7540,-274 7540,-70 8,-70"/>
</g>
<g id="clust2" class="cluster">
<title>cluster_AppModule_declarations</title>
<polygon fill="none" stroke="#000000" points="991,-78 991,-130 7280,-130 7280,-78 991,-78"/>
</g>
<g id="clust37" class="cluster">
<title>cluster_AppModule_imports</title>
<polygon fill="none" stroke="#000000" points="7288,-78 7288,-130 7532,-130 7532,-78 7288,-78"/>
</g>
<g id="clust39" class="cluster">
<title>cluster_AppModule_bootstrap</title>
<polygon fill="none" stroke="#000000" points="3846,-214 3846,-266 3970,-266 3970,-214 3846,-214"/>
</g>
<g id="clust40" class="cluster">
<title>cluster_AppModule_providers</title>
<polygon fill="none" stroke="#000000" points="16,-78 16,-130 983,-130 983,-78 16,-78"/>
</g>
<g id="clust47" class="cluster">
<title>cluster_TabModule</title>
<polygon fill="none" stroke="#000000" stroke-dasharray="1,5" points="7548,-138 7548,-206 8050,-206 8050,-138 7548,-138"/>
</g>
<g id="clust48" class="cluster">
<title>cluster_TabModule_declarations</title>
<polygon fill="none" stroke="#000000" points="7806,-146 7806,-198 8042,-198 8042,-146 7806,-146"/>
</g>
<g id="clust52" class="cluster">
<title>cluster_TabModule_exports</title>
<polygon fill="none" stroke="#000000" points="7556,-146 7556,-198 7798,-198 7798,-146 7556,-146"/>
</g>
<!-- AppComponent -->
<g id="node1" class="node">
<title>AppComponent</title>
<polygon fill="#ffffb3" stroke="#000000" points="7271.9399,-122 7166.0601,-122 7166.0601,-86 7271.9399,-86 7271.9399,-122"/>
<text text-anchor="middle" x="7219" y="-99.8" font-family="Times,serif" font-size="14.00" fill="#000000">AppComponent</text>
</g>
<!-- AppModule -->
<g id="node35" class="node">
<title>AppModule</title>
<polygon fill="#8dd3c7" stroke="#000000" points="3949.6571,-190 3946.6571,-194 3925.6571,-194 3922.6571,-190 3866.3429,-190 3866.3429,-154 3949.6571,-154 3949.6571,-190"/>
<text text-anchor="middle" x="3908" y="-167.8" font-family="Times,serif" font-size="14.00" fill="#000000">AppModule</text>
</g>
<!-- AppComponent&#45;&gt;AppModule -->
<g id="edge1" class="edge">
<title>AppComponent&#45;&gt;AppModule</title>
<path fill="none" stroke="#000000" d="M7219,-122.1532C7219,-145.7566 7219,-184 7219,-184 7219,-184 3959.8633,-184 3959.8633,-184"/>
<polygon fill="#000000" stroke="#000000" points="3959.8633,-180.5001 3949.8633,-184 3959.8632,-187.5001 3959.8633,-180.5001"/>
</g>
<!-- ApplicationSettingsComponent -->
<g id="node2" class="node">
<title>ApplicationSettingsComponent</title>
<polygon fill="#ffffb3" stroke="#000000" points="7148.0447,-122 6955.9553,-122 6955.9553,-86 7148.0447,-86 7148.0447,-122"/>
<text text-anchor="middle" x="7052" y="-99.8" font-family="Times,serif" font-size="14.00" fill="#000000">ApplicationSettingsComponent</text>
</g>
<!-- ApplicationSettingsComponent&#45;&gt;AppModule -->
<g id="edge2" class="edge">
<title>ApplicationSettingsComponent&#45;&gt;AppModule</title>
<path fill="none" stroke="#000000" d="M7052,-122.0908C7052,-145.1328 7052,-182 7052,-182 7052,-182 3959.7743,-182 3959.7743,-182"/>
<polygon fill="#000000" stroke="#000000" points="3959.7743,-178.5001 3949.7743,-182 3959.7743,-185.5001 3959.7743,-178.5001"/>
</g>
<!-- BlockHeaderComponent -->
<g id="node3" class="node">
<title>BlockHeaderComponent</title>
<polygon fill="#ffffb3" stroke="#000000" points="6937.6853,-122 6782.3147,-122 6782.3147,-86 6937.6853,-86 6937.6853,-122"/>
<text text-anchor="middle" x="6860" y="-99.8" font-family="Times,serif" font-size="14.00" fill="#000000">BlockHeaderComponent</text>
</g>
<!-- BlockHeaderComponent&#45;&gt;AppModule -->
<g id="edge3" class="edge">
<title>BlockHeaderComponent&#45;&gt;AppModule</title>
<path fill="none" stroke="#000000" d="M6860,-122.2479C6860,-145.0179 6860,-181 6860,-181 6860,-181 3959.7304,-181 3959.7304,-181"/>
<polygon fill="#000000" stroke="#000000" points="3959.7304,-177.5001 3949.7304,-181 3959.7304,-184.5001 3959.7304,-177.5001"/>
</g>
<!-- ColorDeclarationsPipe -->
<g id="node4" class="node">
<title>ColorDeclarationsPipe</title>
<polygon fill="#ffffb3" stroke="#000000" points="6764.5184,-122 6621.4816,-122 6621.4816,-86 6764.5184,-86 6764.5184,-122"/>
<text text-anchor="middle" x="6693" y="-99.8" font-family="Times,serif" font-size="14.00" fill="#000000">ColorDeclarationsPipe</text>
</g>
<!-- ColorDeclarationsPipe&#45;&gt;AppModule -->
<g id="edge4" class="edge">
<title>ColorDeclarationsPipe&#45;&gt;AppModule</title>
<path fill="none" stroke="#000000" d="M6693,-122.1554C6693,-144.3519 6693,-179 6693,-179 6693,-179 3959.8043,-179 3959.8043,-179"/>
<polygon fill="#000000" stroke="#000000" points="3959.8044,-175.5001 3949.8043,-179 3959.8043,-182.5001 3959.8044,-175.5001"/>
</g>
<!-- EditorPanelComponent -->
<g id="node5" class="node">
<title>EditorPanelComponent</title>
<polygon fill="#ffffb3" stroke="#000000" points="6603.9298,-122 6456.0702,-122 6456.0702,-86 6603.9298,-86 6603.9298,-122"/>
<text text-anchor="middle" x="6530" y="-99.8" font-family="Times,serif" font-size="14.00" fill="#000000">EditorPanelComponent</text>
</g>
<!-- EditorPanelComponent&#45;&gt;AppModule -->
<g id="edge5" class="edge">
<title>EditorPanelComponent&#45;&gt;AppModule</title>
<path fill="none" stroke="#000000" d="M6530,-122.0449C6530,-143.6623 6530,-177 6530,-177 6530,-177 3959.7148,-177 3959.7148,-177"/>
<polygon fill="#000000" stroke="#000000" points="3959.7148,-173.5001 3949.7148,-177 3959.7147,-180.5001 3959.7148,-173.5001"/>
</g>
<!-- MainFrameComponent -->
<g id="node6" class="node">
<title>MainFrameComponent</title>
<polygon fill="#ffffb3" stroke="#000000" points="6438.1456,-122 6291.8544,-122 6291.8544,-86 6438.1456,-86 6438.1456,-122"/>
<text text-anchor="middle" x="6365" y="-99.8" font-family="Times,serif" font-size="14.00" fill="#000000">MainFrameComponent</text>
</g>
<!-- MainFrameComponent&#45;&gt;AppModule -->
<g id="edge6" class="edge">
<title>MainFrameComponent&#45;&gt;AppModule</title>
<path fill="none" stroke="#000000" d="M6365,-122.1686C6365,-143.498 6365,-176 6365,-176 6365,-176 3959.8715,-176 3959.8715,-176"/>
<polygon fill="#000000" stroke="#000000" points="3959.8716,-172.5001 3949.8715,-176 3959.8715,-179.5001 3959.8716,-172.5001"/>
</g>
<!-- MainToolbarComponent -->
<g id="node7" class="node">
<title>MainToolbarComponent</title>
<polygon fill="#ffffb3" stroke="#000000" points="6273.7007,-122 6118.2993,-122 6118.2993,-86 6273.7007,-86 6273.7007,-122"/>
<text text-anchor="middle" x="6196" y="-99.8" font-family="Times,serif" font-size="14.00" fill="#000000">MainToolbarComponent</text>
</g>
<!-- MainToolbarComponent&#45;&gt;AppModule -->
<g id="edge7" class="edge">
<title>MainToolbarComponent&#45;&gt;AppModule</title>
<path fill="none" stroke="#000000" d="M6196,-122.0267C6196,-142.7672 6196,-174 6196,-174 6196,-174 3959.6657,-174 3959.6657,-174"/>
<polygon fill="#000000" stroke="#000000" points="3959.6657,-170.5001 3949.6657,-174 3959.6656,-177.5001 3959.6657,-170.5001"/>
</g>
<!-- MlEditorComponent -->
<g id="node8" class="node">
<title>MlEditorComponent</title>
<polygon fill="#ffffb3" stroke="#000000" points="6100.1624,-122 5967.8376,-122 5967.8376,-86 6100.1624,-86 6100.1624,-122"/>
<text text-anchor="middle" x="6034" y="-99.8" font-family="Times,serif" font-size="14.00" fill="#000000">MlEditorComponent</text>
</g>
<!-- MlEditorComponent&#45;&gt;AppModule -->
<g id="edge8" class="edge">
<title>MlEditorComponent&#45;&gt;AppModule</title>
<path fill="none" stroke="#000000" d="M6034,-122.2228C6034,-142.3652 6034,-172 6034,-172 6034,-172 3959.9898,-172 3959.9898,-172"/>
<polygon fill="#000000" stroke="#000000" points="3959.9898,-168.5001 3949.9898,-172 3959.9897,-175.5001 3959.9898,-168.5001"/>
</g>
<!-- ModelEditorComponent -->
<g id="node9" class="node">
<title>ModelEditorComponent</title>
<polygon fill="#ffffb3" stroke="#000000" points="5949.3766,-122 5796.6234,-122 5796.6234,-86 5949.3766,-86 5949.3766,-122"/>
<text text-anchor="middle" x="5873" y="-99.8" font-family="Times,serif" font-size="14.00" fill="#000000">ModelEditorComponent</text>
</g>
<!-- ModelEditorComponent&#45;&gt;AppModule -->
<g id="edge9" class="edge">
<title>ModelEditorComponent&#45;&gt;AppModule</title>
<path fill="none" stroke="#000000" d="M5873,-122.308C5873,-142.1455 5873,-171 5873,-171 5873,-171 3959.9509,-171 3959.9509,-171"/>
<polygon fill="#000000" stroke="#000000" points="3959.9509,-167.5001 3949.9509,-171 3959.9509,-174.5001 3959.9509,-167.5001"/>
</g>
<!-- ModelEditorToolbarComponent -->
<g id="node10" class="node">
<title>ModelEditorToolbarComponent</title>
<polygon fill="#ffffb3" stroke="#000000" points="5778.6951,-122 5581.3049,-122 5581.3049,-86 5778.6951,-86 5778.6951,-122"/>
<text text-anchor="middle" x="5680" y="-99.8" font-family="Times,serif" font-size="14.00" fill="#000000">ModelEditorToolbarComponent</text>
</g>
<!-- ModelEditorToolbarComponent&#45;&gt;AppModule -->
<g id="edge10" class="edge">
<title>ModelEditorToolbarComponent&#45;&gt;AppModule</title>
<path fill="none" stroke="#000000" d="M5680,-122.1061C5680,-141.3391 5680,-169 5680,-169 5680,-169 3960.0547,-169 3960.0547,-169"/>
<polygon fill="#000000" stroke="#000000" points="3960.0548,-165.5001 3950.0547,-169 3960.0547,-172.5001 3960.0548,-165.5001"/>
</g>
<!-- MonitorNamePipe -->
<g id="node11" class="node">
<title>MonitorNamePipe</title>
<polygon fill="#ffffb3" stroke="#000000" points="5563.2008,-122 5442.7992,-122 5442.7992,-86 5563.2008,-86 5563.2008,-122"/>
<text text-anchor="middle" x="5503" y="-99.8" font-family="Times,serif" font-size="14.00" fill="#000000">MonitorNamePipe</text>
</g>
<!-- MonitorNamePipe&#45;&gt;AppModule -->
<g id="edge11" class="edge">
<title>MonitorNamePipe&#45;&gt;AppModule</title>
<path fill="none" stroke="#000000" d="M5503,-122.1686C5503,-141.0898 5503,-168 5503,-168 5503,-168 3959.8425,-168 3959.8425,-168"/>
<polygon fill="#000000" stroke="#000000" points="3959.8426,-164.5001 3949.8425,-168 3959.8425,-171.5001 3959.8426,-164.5001"/>
</g>
<!-- OpenprojectButtonComponent -->
<g id="node12" class="node">
<title>OpenprojectButtonComponent</title>
<polygon fill="#ffffb3" stroke="#000000" points="5425.1427,-122 5236.8573,-122 5236.8573,-86 5425.1427,-86 5425.1427,-122"/>
<text text-anchor="middle" x="5331" y="-99.8" font-family="Times,serif" font-size="14.00" fill="#000000">OpenprojectButtonComponent</text>
</g>
<!-- OpenprojectButtonComponent&#45;&gt;AppModule -->
<g id="edge12" class="edge">
<title>OpenprojectButtonComponent&#45;&gt;AppModule</title>
<path fill="none" stroke="#000000" d="M5331,-122.2667C5331,-140.5552 5331,-166 5331,-166 5331,-166 3959.817,-166 3959.817,-166"/>
<polygon fill="#000000" stroke="#000000" points="3959.8171,-162.5001 3949.817,-166 3959.817,-169.5001 3959.8171,-162.5001"/>
</g>
<!-- OptionsNamePipePipe -->
<g id="node13" class="node">
<title>OptionsNamePipePipe</title>
<polygon fill="#ffffb3" stroke="#000000" points="5218.5352,-122 5075.4648,-122 5075.4648,-86 5218.5352,-86 5218.5352,-122"/>
<text text-anchor="middle" x="5147" y="-99.8" font-family="Times,serif" font-size="14.00" fill="#000000">OptionsNamePipePipe</text>
</g>
<!-- OptionsNamePipePipe&#45;&gt;AppModule -->
<g id="edge13" class="edge">
<title>OptionsNamePipePipe&#45;&gt;AppModule</title>
<path fill="none" stroke="#000000" d="M5147,-122.002C5147,-139.6754 5147,-164 5147,-164 5147,-164 3959.9337,-164 3959.9337,-164"/>
<polygon fill="#000000" stroke="#000000" points="3959.9337,-160.5001 3949.9337,-164 3959.9337,-167.5001 3959.9337,-160.5001"/>
</g>
<!-- ProjectConsoleComponent -->
<g id="node14" class="node">
<title>ProjectConsoleComponent</title>
<polygon fill="#ffffb3" stroke="#000000" points="5057.3724,-122 4890.6276,-122 4890.6276,-86 5057.3724,-86 5057.3724,-122"/>
<text text-anchor="middle" x="4974" y="-99.8" font-family="Times,serif" font-size="14.00" fill="#000000">ProjectConsoleComponent</text>
</g>
<!-- ProjectConsoleComponent&#45;&gt;AppModule -->
<g id="edge14" class="edge">
<title>ProjectConsoleComponent&#45;&gt;AppModule</title>
<path fill="none" stroke="#000000" d="M4974,-122.0225C4974,-139.3734 4974,-163 4974,-163 4974,-163 3959.7885,-163 3959.7885,-163"/>
<polygon fill="#000000" stroke="#000000" points="3959.7885,-159.5001 3949.7885,-163 3959.7884,-166.5001 3959.7885,-159.5001"/>
</g>
<!-- ProjectDetailsComponent -->
<g id="node15" class="node">
<title>ProjectDetailsComponent</title>
<polygon fill="#ffffb3" stroke="#000000" points="4872.1386,-122 4711.8614,-122 4711.8614,-86 4872.1386,-86 4872.1386,-122"/>
<text text-anchor="middle" x="4792" y="-99.8" font-family="Times,serif" font-size="14.00" fill="#000000">ProjectDetailsComponent</text>
</g>
<!-- ProjectDetailsComponent&#45;&gt;AppModule -->
<g id="edge15" class="edge">
<title>ProjectDetailsComponent&#45;&gt;AppModule</title>
<path fill="none" stroke="#000000" d="M4792,-122.0352C4792,-138.7344 4792,-161 4792,-161 4792,-161 3959.7465,-161 3959.7465,-161"/>
<polygon fill="#000000" stroke="#000000" points="3959.7465,-157.5001 3949.7465,-161 3959.7465,-164.5001 3959.7465,-157.5001"/>
</g>
<!-- ProjectExplorerComponent -->
<g id="node16" class="node">
<title>ProjectExplorerComponent</title>
<polygon fill="#ffffb3" stroke="#000000" points="4693.965,-122 4524.035,-122 4524.035,-86 4693.965,-86 4693.965,-122"/>
<text text-anchor="middle" x="4609" y="-99.8" font-family="Times,serif" font-size="14.00" fill="#000000">ProjectExplorerComponent</text>
</g>
<!-- ProjectExplorerComponent&#45;&gt;AppModule -->
<g id="edge16" class="edge">
<title>ProjectExplorerComponent&#45;&gt;AppModule</title>
<path fill="none" stroke="#000000" d="M4609,-122.0091C4609,-138.0494 4609,-159 4609,-159 4609,-159 3959.7514,-159 3959.7514,-159"/>
<polygon fill="#000000" stroke="#000000" points="3959.7515,-155.5001 3949.7514,-159 3959.7514,-162.5001 3959.7515,-155.5001"/>
</g>
<!-- ProjectMonitorsComponent -->
<g id="node17" class="node">
<title>ProjectMonitorsComponent</title>
<polygon fill="#ffffb3" stroke="#000000" points="4506.3173,-122 4333.6827,-122 4333.6827,-86 4506.3173,-86 4506.3173,-122"/>
<text text-anchor="middle" x="4420" y="-99.8" font-family="Times,serif" font-size="14.00" fill="#000000">ProjectMonitorsComponent</text>
</g>
<!-- ProjectMonitorsComponent&#45;&gt;AppModule -->
<g id="edge17" class="edge">
<title>ProjectMonitorsComponent&#45;&gt;AppModule</title>
<path fill="none" stroke="#000000" d="M4420,-122.2819C4420,-137.9478 4420,-158 4420,-158 4420,-158 3959.8991,-158 3959.8991,-158"/>
<polygon fill="#000000" stroke="#000000" points="3959.8991,-154.5001 3949.8991,-158 3959.8991,-161.5001 3959.8991,-154.5001"/>
</g>
<!-- ProjectTreeBlockNodeComponent -->
<g id="node18" class="node">
<title>ProjectTreeBlockNodeComponent</title>
<polygon fill="#ffffb3" stroke="#000000" points="4316.3918,-122 4105.6082,-122 4105.6082,-86 4316.3918,-86 4316.3918,-122"/>
<text text-anchor="middle" x="4211" y="-99.8" font-family="Times,serif" font-size="14.00" fill="#000000">ProjectTreeBlockNodeComponent</text>
</g>
<!-- ProjectTreeBlockNodeComponent&#45;&gt;AppModule -->
<g id="edge18" class="edge">
<title>ProjectTreeBlockNodeComponent&#45;&gt;AppModule</title>
<path fill="none" stroke="#000000" d="M4211,-122.1871C4211,-137.1824 4211,-156 4211,-156 4211,-156 3959.8127,-156 3959.8127,-156"/>
<polygon fill="#000000" stroke="#000000" points="3959.8128,-152.5001 3949.8127,-156 3959.8127,-159.5001 3959.8128,-152.5001"/>
</g>
<!-- ProjectTreeComponent -->
<g id="node19" class="node">
<title>ProjectTreeComponent</title>
<polygon fill="#ffffb3" stroke="#000000" points="4087.1289,-122 3940.8711,-122 3940.8711,-86 4087.1289,-86 4087.1289,-122"/>
<text text-anchor="middle" x="4014" y="-99.8" font-family="Times,serif" font-size="14.00" fill="#000000">ProjectTreeComponent</text>
</g>
<!-- ProjectTreeComponent&#45;&gt;AppModule -->
<g id="edge19" class="edge">
<title>ProjectTreeComponent&#45;&gt;AppModule</title>
<path fill="none" stroke="#000000" d="M3945.257,-122.2228C3945.257,-122.2228 3945.257,-143.7269 3945.257,-143.7269"/>
<polygon fill="#000000" stroke="#000000" points="3941.7571,-143.7269 3945.257,-153.7269 3948.7571,-143.727 3941.7571,-143.7269"/>
</g>
<!-- ProjectTreeDeclarationNodeComponent -->
<g id="node20" class="node">
<title>ProjectTreeDeclarationNodeComponent</title>
<polygon fill="#ffffb3" stroke="#000000" points="3923.2471,-122 3680.7529,-122 3680.7529,-86 3923.2471,-86 3923.2471,-122"/>
<text text-anchor="middle" x="3802" y="-99.8" font-family="Times,serif" font-size="14.00" fill="#000000">ProjectTreeDeclarationNodeComponent</text>
</g>
<!-- ProjectTreeDeclarationNodeComponent&#45;&gt;AppModule -->
<g id="edge20" class="edge">
<title>ProjectTreeDeclarationNodeComponent&#45;&gt;AppModule</title>
<path fill="none" stroke="#000000" d="M3894.6477,-122.2228C3894.6477,-122.2228 3894.6477,-143.7269 3894.6477,-143.7269"/>
<polygon fill="#000000" stroke="#000000" points="3891.1477,-143.7269 3894.6477,-153.7269 3898.1477,-143.727 3891.1477,-143.7269"/>
</g>
<!-- ProjectTreeMonitorNodeComponent -->
<g id="node21" class="node">
<title>ProjectTreeMonitorNodeComponent</title>
<polygon fill="#ffffb3" stroke="#000000" points="3662.3361,-122 3439.6639,-122 3439.6639,-86 3662.3361,-86 3662.3361,-122"/>
<text text-anchor="middle" x="3551" y="-99.8" font-family="Times,serif" font-size="14.00" fill="#000000">ProjectTreeMonitorNodeComponent</text>
</g>
<!-- ProjectTreeMonitorNodeComponent&#45;&gt;AppModule -->
<g id="edge21" class="edge">
<title>ProjectTreeMonitorNodeComponent&#45;&gt;AppModule</title>
<path fill="none" stroke="#000000" d="M3551,-122.1871C3551,-137.1824 3551,-156 3551,-156 3551,-156 3855.9978,-156 3855.9978,-156"/>
<polygon fill="#000000" stroke="#000000" points="3855.9978,-159.5001 3865.9978,-156 3855.9977,-152.5001 3855.9978,-159.5001"/>
</g>
<!-- ProjectTreeMonitorblockNodeComponent -->
<g id="node22" class="node">
<title>ProjectTreeMonitorblockNodeComponent</title>
<polygon fill="#ffffb3" stroke="#000000" points="3421.9412,-122 3168.0588,-122 3168.0588,-86 3421.9412,-86 3421.9412,-122"/>
<text text-anchor="middle" x="3295" y="-99.8" font-family="Times,serif" font-size="14.00" fill="#000000">ProjectTreeMonitorblockNodeComponent</text>
</g>
<!-- ProjectTreeMonitorblockNodeComponent&#45;&gt;AppModule -->
<g id="edge22" class="edge">
<title>ProjectTreeMonitorblockNodeComponent&#45;&gt;AppModule</title>
<path fill="none" stroke="#000000" d="M3295,-122.2819C3295,-137.9478 3295,-158 3295,-158 3295,-158 3855.866,-158 3855.866,-158"/>
<polygon fill="#000000" stroke="#000000" points="3855.8661,-161.5001 3865.866,-158 3855.866,-154.5001 3855.8661,-161.5001"/>
</g>
<!-- ProjectTreeOptionNodeComponent -->
<g id="node23" class="node">
<title>ProjectTreeOptionNodeComponent</title>
<polygon fill="#ffffb3" stroke="#000000" points="3149.8375,-122 2934.1625,-122 2934.1625,-86 3149.8375,-86 3149.8375,-122"/>
<text text-anchor="middle" x="3042" y="-99.8" font-family="Times,serif" font-size="14.00" fill="#000000">ProjectTreeOptionNodeComponent</text>
</g>
<!-- ProjectTreeOptionNodeComponent&#45;&gt;AppModule -->
<g id="edge23" class="edge">
<title>ProjectTreeOptionNodeComponent&#45;&gt;AppModule</title>
<path fill="none" stroke="#000000" d="M3042,-122.027C3042,-138.3976 3042,-160 3042,-160 3042,-160 3856.231,-160 3856.231,-160"/>
<polygon fill="#000000" stroke="#000000" points="3856.2311,-163.5001 3866.231,-160 3856.231,-156.5001 3856.2311,-163.5001"/>
</g>
<!-- ProjectTreeOptionsNodeComponent -->
<g id="node24" class="node">
<title>ProjectTreeOptionsNodeComponent</title>
<polygon fill="#ffffb3" stroke="#000000" points="2915.7822,-122 2694.2178,-122 2694.2178,-86 2915.7822,-86 2915.7822,-122"/>
<text text-anchor="middle" x="2805" y="-99.8" font-family="Times,serif" font-size="14.00" fill="#000000">ProjectTreeOptionsNodeComponent</text>
</g>
<!-- ProjectTreeOptionsNodeComponent&#45;&gt;AppModule -->
<g id="edge24" class="edge">
<title>ProjectTreeOptionsNodeComponent&#45;&gt;AppModule</title>
<path fill="none" stroke="#000000" d="M2805,-122.0352C2805,-138.7344 2805,-161 2805,-161 2805,-161 3856.108,-161 3856.108,-161"/>
<polygon fill="#000000" stroke="#000000" points="3856.108,-164.5001 3866.108,-161 3856.1079,-157.5001 3856.108,-164.5001"/>
</g>
<!-- ProjectTreePageNodeComponent -->
<g id="node25" class="node">
<title>ProjectTreePageNodeComponent</title>
<polygon fill="#ffffb3" stroke="#000000" points="2676.1615,-122 2471.8385,-122 2471.8385,-86 2676.1615,-86 2676.1615,-122"/>
<text text-anchor="middle" x="2574" y="-99.8" font-family="Times,serif" font-size="14.00" fill="#000000">ProjectTreePageNodeComponent</text>
</g>
<!-- ProjectTreePageNodeComponent&#45;&gt;AppModule -->
<g id="edge25" class="edge">
<title>ProjectTreePageNodeComponent&#45;&gt;AppModule</title>
<path fill="none" stroke="#000000" d="M2574,-122.0225C2574,-139.3734 2574,-163 2574,-163 2574,-163 3856.2437,-163 3856.2437,-163"/>
<polygon fill="#000000" stroke="#000000" points="3856.2438,-166.5001 3866.2437,-163 3856.2437,-159.5001 3856.2438,-166.5001"/>
</g>
<!-- ProjectTreeToolbarComponent -->
<g id="node26" class="node">
<title>ProjectTreeToolbarComponent</title>
<polygon fill="#ffffb3" stroke="#000000" points="2453.4468,-122 2262.5532,-122 2262.5532,-86 2453.4468,-86 2453.4468,-122"/>
<text text-anchor="middle" x="2358" y="-99.8" font-family="Times,serif" font-size="14.00" fill="#000000">ProjectTreeToolbarComponent</text>
</g>
<!-- ProjectTreeToolbarComponent&#45;&gt;AppModule -->
<g id="edge26" class="edge">
<title>ProjectTreeToolbarComponent&#45;&gt;AppModule</title>
<path fill="none" stroke="#000000" d="M2358,-122.302C2358,-140.2699 2358,-165 2358,-165 2358,-165 3856.1402,-165 3856.1402,-165"/>
<polygon fill="#000000" stroke="#000000" points="3856.1402,-168.5001 3866.1402,-165 3856.1402,-161.5001 3856.1402,-168.5001"/>
</g>
<!-- PropertiesPanelComponent -->
<g id="node27" class="node">
<title>PropertiesPanelComponent</title>
<polygon fill="#ffffb3" stroke="#000000" points="2244.6937,-122 2075.3063,-122 2075.3063,-86 2244.6937,-86 2244.6937,-122"/>
<text text-anchor="middle" x="2160" y="-99.8" font-family="Times,serif" font-size="14.00" fill="#000000">PropertiesPanelComponent</text>
</g>
<!-- PropertiesPanelComponent&#45;&gt;AppModule -->
<g id="edge27" class="edge">
<title>PropertiesPanelComponent&#45;&gt;AppModule</title>
<path fill="none" stroke="#000000" d="M2160,-122.2667C2160,-140.5552 2160,-166 2160,-166 2160,-166 3856.0869,-166 3856.0869,-166"/>
<polygon fill="#000000" stroke="#000000" points="3856.0869,-169.5001 3866.0869,-166 3856.0869,-162.5001 3856.0869,-169.5001"/>
</g>
<!-- RegexPipe -->
<g id="node28" class="node">
<title>RegexPipe</title>
<polygon fill="#ffffb3" stroke="#000000" points="2057.1544,-122 1980.8456,-122 1980.8456,-86 2057.1544,-86 2057.1544,-122"/>
<text text-anchor="middle" x="2019" y="-99.8" font-family="Times,serif" font-size="14.00" fill="#000000">RegexPipe</text>
</g>
<!-- RegexPipe&#45;&gt;AppModule -->
<g id="edge28" class="edge">
<title>RegexPipe&#45;&gt;AppModule</title>
<path fill="none" stroke="#000000" d="M2019,-122.1686C2019,-141.0898 2019,-168 2019,-168 2019,-168 3855.897,-168 3855.897,-168"/>
<polygon fill="#000000" stroke="#000000" points="3855.8971,-171.5001 3865.897,-168 3855.897,-164.5001 3855.8971,-171.5001"/>
</g>
<!-- ReplaceSpacesPipe -->
<g id="node29" class="node">
<title>ReplaceSpacesPipe</title>
<polygon fill="#ffffb3" stroke="#000000" points="1962.3445,-122 1837.6555,-122 1837.6555,-86 1962.3445,-86 1962.3445,-122"/>
<text text-anchor="middle" x="1900" y="-99.8" font-family="Times,serif" font-size="14.00" fill="#000000">ReplaceSpacesPipe</text>
</g>
<!-- ReplaceSpacesPipe&#45;&gt;AppModule -->
<g id="edge29" class="edge">
<title>ReplaceSpacesPipe&#45;&gt;AppModule</title>
<path fill="none" stroke="#000000" d="M1900,-122.0348C1900,-141.5762 1900,-170 1900,-170 1900,-170 3856.0601,-170 3856.0601,-170"/>
<polygon fill="#000000" stroke="#000000" points="3856.0601,-173.5001 3866.0601,-170 3856.06,-166.5001 3856.0601,-173.5001"/>
</g>
<!-- SafeHtmlPipe -->
<g id="node30" class="node">
<title>SafeHtmlPipe</title>
<polygon fill="#ffffb3" stroke="#000000" points="1819.0397,-122 1724.9603,-122 1724.9603,-86 1819.0397,-86 1819.0397,-122"/>
<text text-anchor="middle" x="1772" y="-99.8" font-family="Times,serif" font-size="14.00" fill="#000000">SafeHtmlPipe</text>
</g>
<!-- SafeHtmlPipe&#45;&gt;AppModule -->
<g id="edge30" class="edge">
<title>SafeHtmlPipe&#45;&gt;AppModule</title>
<path fill="none" stroke="#000000" d="M1772,-122.2228C1772,-142.3652 1772,-172 1772,-172 1772,-172 3856.2903,-172 3856.2903,-172"/>
<polygon fill="#000000" stroke="#000000" points="3856.2904,-175.5001 3866.2903,-172 3856.2903,-168.5001 3856.2904,-175.5001"/>
</g>
<!-- SaveprojectButtonComponent -->
<g id="node31" class="node">
<title>SaveprojectButtonComponent</title>
<polygon fill="#ffffb3" stroke="#000000" points="1706.5336,-122 1521.4664,-122 1521.4664,-86 1706.5336,-86 1706.5336,-122"/>
<text text-anchor="middle" x="1614" y="-99.8" font-family="Times,serif" font-size="14.00" fill="#000000">SaveprojectButtonComponent</text>
</g>
<!-- SaveprojectButtonComponent&#45;&gt;AppModule -->
<g id="edge31" class="edge">
<title>SaveprojectButtonComponent&#45;&gt;AppModule</title>
<path fill="none" stroke="#000000" d="M1614,-122.1289C1614,-142.5724 1614,-173 1614,-173 1614,-173 3856.2251,-173 3856.2251,-173"/>
<polygon fill="#000000" stroke="#000000" points="3856.2251,-176.5001 3866.2251,-173 3856.225,-169.5001 3856.2251,-176.5001"/>
</g>
<!-- SimulationPanelComponent -->
<g id="node32" class="node">
<title>SimulationPanelComponent</title>
<polygon fill="#ffffb3" stroke="#000000" points="1502.885,-122 1329.115,-122 1329.115,-86 1502.885,-86 1502.885,-122"/>
<text text-anchor="middle" x="1416" y="-99.8" font-family="Times,serif" font-size="14.00" fill="#000000">SimulationPanelComponent</text>
</g>
<!-- SimulationPanelComponent&#45;&gt;AppModule -->
<g id="edge32" class="edge">
<title>SimulationPanelComponent&#45;&gt;AppModule</title>
<path fill="none" stroke="#000000" d="M1416,-122.2843C1416,-143.3211 1416,-175 1416,-175 1416,-175 3856.3106,-175 3856.3106,-175"/>
<polygon fill="#000000" stroke="#000000" points="3856.3106,-178.5001 3866.3106,-175 3856.3105,-171.5001 3856.3106,-178.5001"/>
</g>
<!-- TextEditRowComponent -->
<g id="node33" class="node">
<title>TextEditRowComponent</title>
<polygon fill="#ffffb3" stroke="#000000" points="1311.2674,-122 1154.7326,-122 1154.7326,-86 1311.2674,-86 1311.2674,-122"/>
<text text-anchor="middle" x="1233" y="-99.8" font-family="Times,serif" font-size="14.00" fill="#000000">TextEditRowComponent</text>
</g>
<!-- TextEditRowComponent&#45;&gt;AppModule -->
<g id="edge33" class="edge">
<title>TextEditRowComponent&#45;&gt;AppModule</title>
<path fill="none" stroke="#000000" d="M1233,-122.0449C1233,-143.6623 1233,-177 1233,-177 1233,-177 3856.251,-177 3856.251,-177"/>
<polygon fill="#000000" stroke="#000000" points="3856.251,-180.5001 3866.251,-177 3856.2509,-173.5001 3856.251,-180.5001"/>
</g>
<!-- TreeNodeComponent -->
<g id="node34" class="node">
<title>TreeNodeComponent</title>
<polygon fill="#ffffb3" stroke="#000000" points="1136.7963,-122 999.2037,-122 999.2037,-86 1136.7963,-86 1136.7963,-122"/>
<text text-anchor="middle" x="1068" y="-99.8" font-family="Times,serif" font-size="14.00" fill="#000000">TreeNodeComponent</text>
</g>
<!-- TreeNodeComponent&#45;&gt;AppModule -->
<g id="edge34" class="edge">
<title>TreeNodeComponent&#45;&gt;AppModule</title>
<path fill="none" stroke="#000000" d="M1068,-122.2921C1068,-144.2057 1068,-178 1068,-178 1068,-178 3856.2055,-178 3856.2055,-178"/>
<polygon fill="#000000" stroke="#000000" points="3856.2055,-181.5001 3866.2055,-178 3856.2055,-174.5001 3856.2055,-181.5001"/>
</g>
<!-- AppComponent  -->
<g id="node38" class="node">
<title>AppComponent </title>
<polygon fill="#80b1d3" stroke="#000000" points="3962.439,-258 3853.561,-258 3853.561,-222 3962.439,-222 3962.439,-258"/>
<text text-anchor="middle" x="3908" y="-235.8" font-family="Times,serif" font-size="14.00" fill="#000000">AppComponent </text>
</g>
<!-- AppModule&#45;&gt;AppComponent  -->
<g id="edge37" class="edge">
<title>AppModule&#45;&gt;AppComponent </title>
<path fill="none" stroke="#000000" stroke-dasharray="1,5" d="M3908,-190.2228C3908,-190.2228 3908,-211.7269 3908,-211.7269"/>
<polygon fill="#000000" stroke="#000000" points="3904.5001,-211.7269 3908,-221.7269 3911.5001,-211.727 3904.5001,-211.7269"/>
</g>
<!-- AppRoutingModule -->
<g id="node36" class="node">
<title>AppRoutingModule</title>
<polygon fill="#8dd3c7" stroke="#000000" points="7424.2744,-122 7421.2744,-126 7400.2744,-126 7397.2744,-122 7295.7256,-122 7295.7256,-86 7424.2744,-86 7424.2744,-122"/>
<text text-anchor="middle" x="7360" y="-99.8" font-family="Times,serif" font-size="14.00" fill="#000000">AppRoutingModule</text>
</g>
<!-- AppRoutingModule&#45;&gt;AppModule -->
<g id="edge35" class="edge">
<title>AppRoutingModule&#45;&gt;AppModule</title>
<path fill="none" stroke="#000000" d="M7360,-122.1985C7360,-146.3563 7360,-186 7360,-186 7360,-186 3959.7844,-186 3959.7844,-186"/>
<polygon fill="#000000" stroke="#000000" points="3959.7844,-182.5001 3949.7844,-186 3959.7843,-189.5001 3959.7844,-182.5001"/>
</g>
<!-- TabModule -->
<g id="node37" class="node">
<title>TabModule</title>
<polygon fill="#8dd3c7" stroke="#000000" points="7523.8176,-122 7520.8176,-126 7499.8176,-126 7496.8176,-122 7442.1824,-122 7442.1824,-86 7523.8176,-86 7523.8176,-122"/>
<text text-anchor="middle" x="7483" y="-99.8" font-family="Times,serif" font-size="14.00" fill="#000000">TabModule</text>
</g>
<!-- TabModule&#45;&gt;AppModule -->
<g id="edge36" class="edge">
<title>TabModule&#45;&gt;AppModule</title>
<path fill="none" stroke="#000000" d="M7469.4472,-122.0098C7469.4472,-146.4207 7469.4472,-187 7469.4472,-187 7469.4472,-187 3959.8508,-187 3959.8508,-187"/>
<polygon fill="#000000" stroke="#000000" points="3959.8509,-183.5001 3949.8508,-187 3959.8508,-190.5001 3959.8509,-183.5001"/>
</g>
<!-- TabComponent  -->
<g id="node47" class="node">
<title>TabComponent </title>
<polygon fill="#fb8072" stroke="#000000" points="7790.1003,-190 7683.8997,-190 7683.8997,-154 7790.1003,-154 7790.1003,-190"/>
<text text-anchor="middle" x="7737" y="-167.8" font-family="Times,serif" font-size="14.00" fill="#000000">TabComponent </text>
</g>
<!-- TabModule&#45;&gt;TabComponent  -->
<g id="edge46" class="edge">
<title>TabModule&#45;&gt;TabComponent </title>
<path fill="none" stroke="#000000" stroke-dasharray="5,2" d="M7523.8095,-113C7595.6094,-113 7737,-113 7737,-113 7737,-113 7737,-143.9775 7737,-143.9775"/>
<polygon fill="#000000" stroke="#000000" points="7733.5001,-143.9774 7737,-153.9775 7740.5001,-143.9775 7733.5001,-143.9774"/>
</g>
<!-- TabsContainer  -->
<g id="node48" class="node">
<title>TabsContainer </title>
<polygon fill="#fb8072" stroke="#000000" points="7665.9194,-190 7564.0806,-190 7564.0806,-154 7665.9194,-154 7665.9194,-190"/>
<text text-anchor="middle" x="7615" y="-167.8" font-family="Times,serif" font-size="14.00" fill="#000000">TabsContainer </text>
</g>
<!-- TabModule&#45;&gt;TabsContainer  -->
<g id="edge47" class="edge">
<title>TabModule&#45;&gt;TabsContainer </title>
<path fill="none" stroke="#000000" stroke-dasharray="5,2" d="M7496.5528,-122.0263C7496.5528,-146.9773 7496.5528,-189 7496.5528,-189 7496.5528,-189 7554.0803,-189 7554.0803,-189"/>
<polygon fill="#000000" stroke="#000000" points="7554.0804,-192.5001 7564.0803,-189 7554.0803,-185.5001 7554.0804,-192.5001"/>
</g>
<!-- AccessCpnService -->
<g id="node39" class="node">
<title>AccessCpnService</title>
<ellipse fill="#fdb462" stroke="#000000" cx="892" cy="-104" rx="83.3635" ry="18"/>
<text text-anchor="middle" x="892" y="-99.8" font-family="Times,serif" font-size="14.00" fill="#000000">AccessCpnService</text>
</g>
<!-- AccessCpnService&#45;&gt;AppModule -->
<g id="edge38" class="edge">
<title>AccessCpnService&#45;&gt;AppModule</title>
<path fill="none" stroke="#000000" d="M892,-122.0109C892,-144.4852 892,-180 892,-180 892,-180 3856.2271,-180 3856.2271,-180"/>
<polygon fill="#000000" stroke="#000000" points="3856.2271,-183.5001 3866.2271,-180 3856.2271,-176.5001 3856.2271,-183.5001"/>
</g>
<!-- EventService -->
<g id="node40" class="node">
<title>EventService</title>
<ellipse fill="#fdb462" stroke="#000000" cx="728" cy="-104" rx="62.5373" ry="18"/>
<text text-anchor="middle" x="728" y="-99.8" font-family="Times,serif" font-size="14.00" fill="#000000">EventService</text>
</g>
<!-- EventService&#45;&gt;AppModule -->
<g id="edge39" class="edge">
<title>EventService&#45;&gt;AppModule</title>
<path fill="none" stroke="#000000" d="M728,-122.0908C728,-145.1328 728,-182 728,-182 728,-182 3856.3368,-182 3856.3368,-182"/>
<polygon fill="#000000" stroke="#000000" points="3856.3368,-185.5001 3866.3368,-182 3856.3367,-178.5001 3856.3368,-185.5001"/>
</g>
<!-- ModelService -->
<g id="node41" class="node">
<title>ModelService</title>
<ellipse fill="#fdb462" stroke="#000000" cx="582" cy="-104" rx="65.4072" ry="18"/>
<text text-anchor="middle" x="582" y="-99.8" font-family="Times,serif" font-size="14.00" fill="#000000">ModelService</text>
</g>
<!-- ModelService&#45;&gt;AppModule -->
<g id="edge40" class="edge">
<title>ModelService&#45;&gt;AppModule</title>
<path fill="none" stroke="#000000" d="M582,-122.1532C582,-145.7566 582,-184 582,-184 582,-184 3856.2486,-184 3856.2486,-184"/>
<polygon fill="#000000" stroke="#000000" points="3856.2486,-187.5001 3866.2486,-184 3856.2486,-180.5001 3856.2486,-187.5001"/>
</g>
<!-- ProjectService -->
<g id="node42" class="node">
<title>ProjectService</title>
<ellipse fill="#fdb462" stroke="#000000" cx="431" cy="-104" rx="67.1888" ry="18"/>
<text text-anchor="middle" x="431" y="-99.8" font-family="Times,serif" font-size="14.00" fill="#000000">ProjectService</text>
</g>
<!-- ProjectService&#45;&gt;AppModule -->
<g id="edge41" class="edge">
<title>ProjectService&#45;&gt;AppModule</title>
<path fill="none" stroke="#000000" d="M431,-122.3802C431,-146.2785 431,-185 431,-185 431,-185 3856.2218,-185 3856.2218,-185"/>
<polygon fill="#000000" stroke="#000000" points="3856.2218,-188.5001 3866.2218,-185 3856.2217,-181.5001 3856.2218,-188.5001"/>
</g>
<!-- SettingsService -->
<g id="node43" class="node">
<title>SettingsService</title>
<ellipse fill="#fdb462" stroke="#000000" cx="275" cy="-104" rx="71.221" ry="18"/>
<text text-anchor="middle" x="275" y="-99.8" font-family="Times,serif" font-size="14.00" fill="#000000">SettingsService</text>
</g>
<!-- SettingsService&#45;&gt;AppModule -->
<g id="edge42" class="edge">
<title>SettingsService&#45;&gt;AppModule</title>
<path fill="none" stroke="#000000" d="M275,-122.0098C275,-146.4207 275,-187 275,-187 275,-187 3856.2591,-187 3856.2591,-187"/>
<polygon fill="#000000" stroke="#000000" points="3856.2592,-190.5001 3866.2591,-187 3856.2591,-183.5001 3856.2592,-190.5001"/>
</g>
<!-- ValidationService -->
<g id="node44" class="node">
<title>ValidationService</title>
<ellipse fill="#fdb462" stroke="#000000" cx="105" cy="-104" rx="80.5142" ry="18"/>
<text text-anchor="middle" x="105" y="-99.8" font-family="Times,serif" font-size="14.00" fill="#000000">ValidationService</text>
</g>
<!-- ValidationService&#45;&gt;AppModule -->
<g id="edge43" class="edge">
<title>ValidationService&#45;&gt;AppModule</title>
<path fill="none" stroke="#000000" d="M105,-122.0263C105,-146.9773 105,-189 105,-189 105,-189 3856.2644,-189 3856.2644,-189"/>
<polygon fill="#000000" stroke="#000000" points="3856.2644,-192.5001 3866.2644,-189 3856.2644,-185.5001 3856.2644,-192.5001"/>
</g>
<!-- TabComponent -->
<g id="node45" class="node">
<title>TabComponent</title>
<polygon fill="#ffffb3" stroke="#000000" points="8033.5996,-190 7930.4004,-190 7930.4004,-154 8033.5996,-154 8033.5996,-190"/>
<text text-anchor="middle" x="7982" y="-167.8" font-family="Times,serif" font-size="14.00" fill="#000000">TabComponent</text>
</g>
<!-- TabComponent&#45;&gt;TabModule -->
<g id="edge44" class="edge">
<title>TabComponent&#45;&gt;TabModule</title>
<path fill="none" stroke="#000000" d="M7982,-153.7521C7982,-130.9821 7982,-95 7982,-95 7982,-95 7533.8353,-95 7533.8353,-95"/>
<polygon fill="#000000" stroke="#000000" points="7533.8353,-91.5001 7523.8353,-95 7533.8352,-98.5001 7533.8353,-91.5001"/>
</g>
<!-- TabsContainer -->
<g id="node46" class="node">
<title>TabsContainer</title>
<polygon fill="#ffffb3" stroke="#000000" points="7912.4203,-190 7813.5797,-190 7813.5797,-154 7912.4203,-154 7912.4203,-190"/>
<text text-anchor="middle" x="7863" y="-167.8" font-family="Times,serif" font-size="14.00" fill="#000000">TabsContainer</text>
</g>
<!-- TabsContainer&#45;&gt;TabModule -->
<g id="edge45" class="edge">
<title>TabsContainer&#45;&gt;TabModule</title>
<path fill="none" stroke="#000000" d="M7863,-153.7772C7863,-133.6348 7863,-104 7863,-104 7863,-104 7533.6667,-104 7533.6667,-104"/>
<polygon fill="#000000" stroke="#000000" points="7533.6667,-100.5001 7523.6667,-104 7533.6666,-107.5001 7533.6667,-100.5001"/>
</g>
</g>
</svg>
